<?xml version="1.0" standalone="no"?>
<!DOCTYPE svg PUBLIC "-//W3C//DTD SVG 20010904//EN"
 "http://www.w3.org/TR/2001/REC-SVG-20010904/DTD/svg10.dtd">
<svg version="1.0" xmlns="http://www.w3.org/2000/svg"
 width="640.000000pt" height="640.000000pt" viewBox="0 0 640.000000 640.000000"
 preserveAspectRatio="xMidYMid meet">

<g transform="translate(0.000000,640.000000) scale(0.100000,-0.100000)"
fill="#000000" stroke="none">
<path d="M0 3200 l0 -3200 1096 0 c603 0 1094 3 1092 8 -2 4 -27 54 -56 111
-28 57 -52 105 -52 106 0 3 183 -47 277 -76 34 -10 76 -19 93 -19 22 0 30 -5
30 -17 0 -14 2 -15 9 -4 7 11 14 11 41 -3 18 -9 38 -16 44 -16 6 0 34 -20 61
-45 33 -29 59 -45 78 -45 33 0 34 6 5 30 -21 17 -21 18 -4 17 10 -1 21 4 23
11 3 6 -2 12 -11 12 -19 0 -20 4 -3 31 10 17 9 23 0 26 -7 3 -13 9 -13 15 0
12 -19 55 -66 153 -19 39 -34 78 -34 88 0 9 -4 17 -9 17 -10 0 -24 58 -25 103
-1 15 2 27 7 27 4 0 7 -5 7 -10 0 -6 11 -16 25 -22 19 -8 22 -14 13 -20 -10
-5 -8 -8 5 -8 10 0 21 -8 24 -17 10 -27 67 -77 110 -98 21 -10 46 -22 56 -27
12 -6 23 -5 31 1 7 6 21 8 32 5 32 -8 148 39 152 62 1 10 21 29 42 42 22 12
40 27 40 32 0 6 6 10 13 10 8 0 22 9 32 20 10 11 24 20 31 20 8 0 26 13 41 30
15 17 36 30 50 30 16 0 27 8 33 25 5 14 29 35 57 49 26 14 44 25 38 26 -15 0
46 50 61 50 8 0 19 9 26 20 7 11 16 20 21 20 4 0 19 12 32 27 23 28 24 28 39
8 15 -20 15 -19 9 3 -4 17 -2 23 8 22 29 -4 40 1 48 23 9 23 61 37 61 16 0 -5
5 -7 10 -4 7 4 7 13 0 26 -8 15 -7 21 4 25 8 3 19 3 23 1 5 -3 24 17 43 44 19
28 42 58 50 67 40 44 71 94 66 107 -3 9 0 12 10 8 14 -5 18 6 14 41 -1 13 3
17 14 13 9 -4 16 -2 16 4 0 6 7 8 16 5 12 -4 15 -2 10 9 -8 22 3 45 20 38 10
-4 14 4 15 28 l1 34 7 -30 7 -30 5 27 c3 14 2 33 -3 42 -5 10 -5 16 0 16 6 0
13 7 16 16 4 12 2 15 -9 10 -13 -5 -13 -2 1 19 26 40 31 30 21 -46 -10 -78 -1
-192 13 -168 7 10 34 -12 112 -87 57 -54 124 -117 150 -138 64 -51 74 -86 59
-200 -20 -145 -110 -387 -193 -517 l-35 -54 -144 -23 c-79 -12 -225 -31 -324
-42 -200 -22 -253 -37 -305 -80 -31 -26 -33 -29 -13 -30 12 0 37 9 55 20 44
25 134 46 293 65 72 8 192 25 269 36 76 11 141 18 143 15 7 -6 -39 -79 -70
-113 l-20 -23 1166 0 c1141 0 1167 0 1167 19 0 27 -135 124 -310 223 -131 74
-480 200 -770 278 -292 78 -430 137 -564 239 -78 60 -148 101 -170 101 -13 0
-43 25 -79 65 -66 74 -119 105 -186 110 -43 4 -51 9 -124 85 -105 110 -107
115 -92 220 7 47 14 87 15 90 1 3 1 15 0 27 -1 16 7 26 24 34 14 7 26 20 26
30 0 10 9 21 20 24 13 4 20 15 20 30 0 15 10 31 25 41 14 9 25 25 25 35 0 11
7 22 15 25 8 3 19 21 25 39 6 18 17 36 25 39 8 3 15 16 15 28 0 13 8 28 18 34
9 6 23 32 31 58 7 26 19 46 27 46 9 0 14 12 14 34 0 45 9 66 27 66 12 0 14 7
10 29 -4 20 0 34 13 49 11 11 18 33 18 51 -1 16 5 37 12 46 7 8 10 22 6 30 -8
22 11 65 29 65 13 0 15 5 9 23 -19 53 -1 117 74 271 85 175 112 374 66 503
-16 43 -40 61 -58 43 -7 -7 -6 -10 3 -10 6 0 21 -21 33 -47 18 -40 20 -60 16
-152 -5 -97 -9 -113 -43 -184 -21 -43 -39 -76 -41 -74 -2 2 -1 67 3 146 5 113
9 141 20 137 18 -7 17 24 -2 38 -10 8 -15 34 -16 92 -2 90 4 108 32 101 15 -4
17 -2 10 11 -4 10 -11 62 -15 117 l-6 100 55 160 c59 172 105 336 105 373 0
36 16 25 30 -20 19 -61 24 -25 11 74 -12 86 -5 218 12 218 6 0 8 61 4 173 l-7
172 20 -40 c10 -22 19 -54 19 -72 1 -39 16 -51 25 -20 12 44 4 124 -20 212
-14 50 -31 133 -38 186 -16 115 -40 170 -109 245 -99 108 -228 183 -327 189
-30 2 -55 7 -55 12 1 4 4 36 9 69 14 111 -20 178 -137 267 -106 80 -126 86
-57 17 63 -63 110 -144 110 -190 0 -20 -6 -14 -31 30 -62 113 -172 191 -325
230 -81 21 -103 35 -232 153 -35 31 -69 57 -75 57 -6 0 7 -16 29 -35 l39 -35
-40 15 c-21 9 -86 40 -143 70 -57 30 -110 51 -118 48 -8 -3 -35 0 -59 6 -25 6
-100 12 -167 12 -73 1 -139 6 -167 15 -66 20 -95 17 -42 -5 l44 -18 -89 -7
c-49 -3 -128 -16 -176 -28 -88 -22 -111 -20 -89 6 11 14 95 50 136 59 16 4 15
5 -5 6 -14 0 -45 -8 -69 -19 -24 -11 -47 -20 -52 -20 -5 0 -9 96 -9 215 l0
215 -1320 0 -1320 0 0 -3200z m4565 1870 c3 -5 1 -10 -4 -10 -6 0 -11 5 -11
10 0 6 2 10 4 10 3 0 8 -4 11 -10z m-1065 -75 c-7 -9 -27 -25 -44 -36 -25 -17
-24 -14 8 15 41 38 58 47 36 21z m611 -27 c-24 -25 -18 -40 12 -33 12 3 47 -4
77 -16 30 -11 63 -23 73 -26 11 -3 16 -12 13 -20 -4 -9 15 -36 45 -68 40 -42
49 -58 44 -75 -4 -14 -1 -28 10 -40 44 -49 57 -152 25 -193 -35 -45 -19 -58
41 -33 13 6 18 -5 27 -63 17 -99 16 -392 0 -388 -17 3 -15 -4 33 -130 35 -89
43 -124 47 -196 4 -77 -8 -248 -25 -345 l-5 -32 -32 19 c-63 39 -252 61 -651
77 -154 6 -167 8 -134 19 20 7 91 21 158 30 150 22 395 17 479 -10 29 -9 58
-15 64 -13 19 7 -88 123 -171 186 -46 34 -87 62 -91 62 -51 0 -585 -112 -665
-140 -30 -10 -55 -17 -55 -14 0 2 -13 -2 -30 -11 -37 -19 -40 -19 -40 4 0 26
-17 36 -23 14 -15 -56 -17 -78 -7 -109 7 -19 21 -39 32 -45 20 -11 20 -12 -8
-30 -16 -10 -35 -27 -44 -38 -13 -18 -20 -19 -55 -11 -56 13 -216 12 -255 -2
-28 -9 -35 -9 -38 3 -3 8 -21 30 -41 49 l-36 35 28 27 c24 23 27 34 27 87 0
69 -15 81 -25 21 -8 -46 -20 -52 -29 -14 -5 17 -12 24 -24 21 -9 -2 -33 4 -52
13 -55 26 -268 98 -567 190 l-72 23 -58 -28 c-82 -40 -175 -108 -228 -167 -40
-45 -62 -89 -35 -73 6 3 10 -1 10 -9 0 -24 24 -19 53 9 63 64 298 61 575 -6
48 -12 88 -23 90 -24 2 -2 -110 0 -249 3 -263 5 -451 -7 -518 -34 -18 -8 -35
-14 -37 -14 -2 0 -4 85 -4 189 0 142 4 199 15 231 18 51 75 146 110 184 27 29
27 60 0 50 -13 -5 -15 8 -15 92 1 139 16 243 40 276 24 33 25 38 5 38 -13 0
-12 6 5 39 33 65 68 112 73 99 2 -7 8 1 12 17 5 17 16 41 27 54 17 23 18 23
18 3 0 -11 7 -27 15 -36 8 -8 15 -21 15 -28 0 -11 -2 -11 -9 0 -7 11 -9 10
-15 -3 -9 -25 21 -51 43 -38 10 6 29 9 44 6 32 -6 33 -1 7 35 -21 30 -35 101
-23 118 4 5 30 22 57 37 37 21 47 23 42 10 -4 -10 4 -5 20 10 28 29 39 33 48
18 8 -12 49 -1 59 16 4 7 15 13 24 13 10 0 13 6 9 16 -4 11 -1 14 12 10 46
-13 122 -17 122 -5 0 16 56 6 111 -20 23 -12 57 -21 75 -21 18 0 35 -4 38 -9
3 -5 15 -7 26 -4 22 6 20 32 -4 63 -6 8 9 -2 34 -21 57 -46 88 -62 105 -55 7
2 28 0 45 -7 25 -10 33 -9 40 3 7 12 13 11 34 -9 24 -23 46 -22 46 2 0 7 21
33 46 60 49 50 75 66 33 20 -42 -47 -51 -62 -44 -73 4 -7 21 -3 48 13 23 13
51 27 61 31 19 7 19 6 1 -14 -10 -11 -16 -23 -12 -26 3 -3 41 6 84 20 83 28
131 35 103 15 -12 -8 -8 -9 15 -6 75 12 213 39 242 48 30 9 35 7 62 -23 42
-46 91 -150 104 -220 13 -71 0 -140 -40 -199 -27 -42 -96 -89 -128 -89 -14 0
-16 -3 -7 -12 18 -18 92 16 139 65 70 72 88 118 87 222 0 82 -3 97 -38 170
-20 44 -41 87 -46 96 -10 20 -4 29 21 29 10 0 39 7 65 16 60 20 67 11 12 -17
-31 -16 -38 -24 -25 -27 33 -7 212 62 236 92 7 9 18 16 23 16 5 0 0 -10 -11
-22z m-696 -38 c-3 -6 -21 -17 -38 -26 -36 -19 -31 -9 10 17 34 21 36 22 28 9z
m-80 -50 c-3 -5 -12 -10 -18 -10 -7 0 -6 4 3 10 19 12 23 12 15 0z m-1135
-1492 c-106 -46 -151 -74 -195 -118 -27 -27 -56 -50 -65 -49 -13 0 -13 1 0 6
20 8 40 36 33 47 -4 5 -1 6 6 2 6 -4 25 7 44 26 19 18 45 41 58 50 l24 17 -35
0 c-28 0 -31 -2 -15 -9 19 -8 19 -9 1 -9 -10 -1 -25 -9 -32 -18 -16 -23 -29
-11 -15 15 10 18 8 19 -37 14 -26 -3 -48 -8 -50 -13 -2 -4 -9 -6 -16 -3 -7 3
-19 -2 -26 -11 -11 -13 -10 -18 6 -31 18 -14 18 -15 -6 -9 -21 5 -22 4 -7 -5
9 -6 17 -18 17 -27 0 -8 10 -33 22 -55 22 -38 25 -40 62 -35 26 4 35 2 25 -4
-11 -7 -9 -9 9 -9 13 0 20 -4 17 -10 -3 -5 -21 -7 -40 -4 -28 4 -34 2 -29 -9
3 -9 13 -13 25 -10 12 3 19 0 19 -8 0 -9 3 -10 8 -3 9 13 54 26 46 13 -3 -5 4
-9 15 -9 12 0 21 -3 21 -8 0 -4 15 -12 33 -18 17 -7 46 -16 62 -22 105 -37
196 -38 343 -6 37 8 96 19 131 25 35 5 68 12 73 15 9 6 6 32 -8 69 -6 15 -4
16 14 6 11 -6 23 -11 26 -11 12 0 5 28 -9 40 -8 7 -15 17 -15 23 0 5 8 3 18
-6 11 -10 22 -13 32 -7 8 5 19 6 24 2 24 -14 45 -8 51 16 5 19 -1 32 -22 54
-15 17 -37 34 -48 38 -15 7 -16 9 -4 9 9 1 31 -9 50 -22 41 -28 61 -81 57
-152 -2 -41 -7 -51 -23 -53 -13 -2 -29 -23 -47 -61 -31 -65 -35 -103 -13 -121
20 -17 19 -49 -5 -103 -27 -61 -64 -104 -111 -127 -104 -53 -325 -73 -504 -46
-248 39 -321 118 -371 399 -17 98 -18 202 -3 246 20 56 86 80 254 91 161 10
154 10 125 -2z m2075 -60 c178 -27 216 -83 181 -269 -45 -243 -122 -363 -260
-409 -168 -55 -481 -49 -628 13 -45 19 -94 72 -122 132 -35 73 -36 93 -6 108
34 17 39 76 11 116 -12 16 -21 33 -21 39 0 5 -7 15 -15 22 -12 10 -19 10 -27
2 -23 -23 -28 -11 -28 68 0 113 28 161 100 174 l35 7 -30 -18 c-27 -15 -28
-18 -10 -21 11 -2 27 -10 36 -18 12 -10 18 -11 27 -2 18 18 27 0 10 -19 -43
-50 -46 -103 -3 -63 l23 21 -25 -49 c-13 -26 -21 -55 -18 -63 5 -14 135 -52
135 -39 0 3 -22 15 -50 28 -55 25 -57 30 -36 71 14 26 104 108 110 100 1 -2
11 -26 20 -52 21 -55 74 -114 112 -123 68 -17 154 48 189 142 10 27 20 51 21
53 6 7 153 -82 158 -96 8 -21 -19 -68 -53 -92 -87 -62 -199 -72 -403 -35 -24
4 -38 3 -38 -4 0 -16 126 -35 235 -36 92 0 107 3 179 33 43 19 94 47 112 63
30 27 36 28 69 19 37 -10 65 -6 65 10 0 5 -6 9 -14 9 -7 0 -42 30 -77 66 -44
45 -86 76 -134 100 l-70 34 85 -6 c47 -3 116 -10 155 -16z m-732 5 c-7 -2 -19
-2 -25 0 -7 3 -2 5 12 5 14 0 19 -2 13 -5z m-1628 -14 c11 -16 1 -19 -13 -3
-7 8 -8 14 -3 14 5 0 13 -5 16 -11z m564 -8 c30 -23 19 -45 -18 -36 -37 9 -47
21 -31 40 16 19 20 19 49 -4z m-209 -23 c0 -44 53 -134 93 -158 81 -50 174 -1
223 116 l15 36 34 -44 c43 -53 68 -105 61 -124 -3 -8 -19 -14 -38 -14 -18 0
-51 -5 -73 -10 -22 -5 -83 -14 -136 -20 -180 -20 -288 15 -356 117 -25 38 17
82 113 117 58 21 64 20 64 -16z m1610 -3 c14 -17 7 -45 -13 -45 -24 0 -51 26
-44 44 8 20 40 21 57 1z m-2224 -30 c16 -40 18 -59 4 -50 -23 14 -77 -26 -100
-75 -13 -28 -25 -49 -26 -47 -6 5 24 115 40 144 13 26 51 63 64 63 2 0 10 -16
18 -35z m294 5 c0 -5 -5 -10 -11 -10 -5 0 -7 5 -4 10 3 6 8 10 11 10 2 0 4 -4
4 -10z m1286 -135 c31 -26 39 -42 58 -115 26 -100 93 -255 135 -312 61 -83
143 -112 373 -131 162 -13 322 -1 432 33 53 17 78 31 112 67 53 54 110 169
155 311 17 56 36 102 40 102 14 0 10 -210 -6 -337 -17 -129 -42 -249 -79 -388
-18 -69 -28 -89 -40 -87 -13 2 -15 -4 -10 -41 4 -28 2 -47 -5 -51 -6 -4 -11
-2 -11 3 0 6 -4 11 -10 11 -5 0 -7 -21 -3 -52 6 -48 5 -51 -14 -46 -18 5 -20
1 -19 -26 1 -20 -3 -30 -11 -29 -9 2 -11 -7 -6 -30 6 -31 6 -32 -14 -14 -29
25 -36 21 -17 -12 11 -18 14 -36 9 -47 -5 -13 -9 -15 -12 -6 -8 21 -25 13 -18
-9 4 -11 1 -34 -5 -50 -10 -23 -15 -27 -26 -18 -11 9 -14 6 -14 -19 0 -48 -73
-145 -210 -281 -134 -133 -153 -151 -163 -151 -3 0 -20 25 -37 55 -17 30 -36
55 -41 55 -12 0 -12 -2 11 -54 19 -46 15 -55 -21 -36 -25 14 -24 2 4 -28 l22
-25 -23 12 c-27 14 -42 7 -24 -11 19 -19 14 -27 -10 -20 -21 5 -22 4 -8 -13
14 -16 12 -17 -20 -11 -34 6 -35 6 -12 -10 27 -20 29 -34 2 -27 -16 4 -19 2
-14 -12 6 -15 3 -16 -24 -10 -33 7 -46 -10 -17 -21 22 -9 18 -27 -5 -21 -17 4
-19 2 -13 -20 6 -26 5 -26 -36 -19 -38 6 -55 -4 -31 -19 6 -3 10 -11 10 -17 0
-10 -28 -7 -65 7 -19 8 -18 6 3 -17 12 -13 22 -27 22 -31 0 -14 -24 -7 -46 14
l-21 20 4 -28 4 -28 -21 28 c-23 29 -46 37 -36 12 5 -13 2 -14 -15 -5 -20 11
-20 11 -5 -19 18 -35 19 -41 7 -41 -5 0 -12 8 -16 18 -3 9 -12 26 -20 36 -15
19 -15 19 -29 1 -12 -17 -14 -16 -27 18 -15 42 -36 44 -31 4 2 -15 -1 -27 -7
-27 -6 0 -11 6 -11 13 0 8 -10 22 -21 33 l-21 19 7 -35 c9 -45 -8 -29 -25 22
-15 48 -30 49 -30 2 0 -46 -14 -36 -30 21 -13 47 -30 52 -30 7 0 -35 -17 -17
-22 23 -2 18 -8 29 -16 27 -7 -1 -15 11 -18 28 -8 37 -18 38 -33 3 -6 -16 -25
-50 -41 -78 l-30 -50 6 43 c8 51 -3 53 -35 7 -24 -36 -47 -38 -36 -4 8 25 -3
24 -31 -2 -12 -11 -29 -22 -38 -23 -9 -1 -30 -15 -47 -32 l-31 -29 17 33 c23
46 13 51 -24 10 -27 -30 -29 -31 -24 -9 7 26 -3 24 -39 -7 -23 -20 -24 0 -2
34 26 39 7 41 -32 3 l-35 -34 7 28 c6 27 5 28 -14 16 -29 -18 -41 -2 -14 17
35 24 27 37 -18 29 -40 -7 -57 7 -24 19 27 10 10 31 -23 28 -33 -4 -53 12 -28
22 22 8 18 26 -5 26 -11 0 -20 5 -20 10 0 6 -9 10 -20 10 -11 0 -20 4 -20 9 0
5 9 13 20 16 34 11 23 28 -13 21 -43 -8 -52 2 -24 25 l22 18 -34 1 c-25 0 -32
4 -27 15 4 12 0 14 -22 9 l-27 -7 23 25 c12 13 22 30 22 36 0 15 -23 15 -38 0
-17 -17 -15 3 2 28 8 11 23 41 32 65 9 24 37 74 60 110 43 65 45 67 95 73 104
14 450 17 487 5 28 -9 58 -9 135 1 92 13 107 12 227 -10 87 -15 146 -21 181
-17 34 4 71 1 109 -10 l58 -16 35 -76 c19 -42 42 -96 52 -121 36 -87 49 -82
30 10 -7 36 -15 84 -18 108 -4 37 -3 41 9 31 20 -17 26 -6 14 25 -15 40 -13
42 26 38 34 -4 36 -3 29 19 -4 13 -14 37 -22 53 -14 26 -13 28 1 22 54 -21 52
-21 36 0 -30 39 -87 86 -168 135 -80 48 -109 57 -82 24 22 -27 -7 -17 -43 15
-19 16 -37 27 -40 23 -4 -3 -16 2 -27 12 -16 14 -20 15 -20 4 0 -8 3 -19 8
-25 4 -5 0 -2 -8 8 -8 9 -23 29 -33 43 -24 33 -33 26 -19 -14 13 -37 -3 -43
-19 -7 -13 28 -127 131 -136 122 -3 -3 2 -15 12 -26 10 -11 13 -20 7 -20 -16
0 -45 47 -37 60 3 5 13 10 21 10 15 0 60 29 102 65 53 45 78 143 52 209 -16
44 -28 28 -13 -18 20 -62 4 -117 -50 -170 -43 -42 -127 -92 -127 -75 0 18 -52
9 -83 -15 -18 -13 -41 -28 -52 -34 -18 -9 -20 -7 -20 13 2 29 16 43 96 95 37
24 74 40 89 39 58 -3 67 10 25 37 -36 24 -74 10 -141 -51 -32 -29 -62 -51 -66
-48 -5 2 -8 -1 -8 -6 0 -6 -18 -11 -40 -11 -36 0 -47 6 -93 54 -56 59 -101 85
-132 78 -24 -5 -55 -31 -55 -46 0 -6 -13 -11 -29 -12 -24 -1 -33 6 -51 38 -18
33 -21 49 -16 90 4 27 16 66 26 86 21 38 20 48 -3 39 -24 -9 -57 -93 -57 -147
0 -78 36 -137 105 -172 22 -11 42 -22 43 -23 9 -8 -43 -65 -58 -65 -9 0 -27
-9 -40 -20 -13 -11 -29 -20 -36 -20 -7 0 -36 -14 -65 -30 -50 -30 -75 -36 -44
-10 17 14 20 30 5 30 -6 0 -41 -22 -79 -50 -72 -53 -96 -63 -66 -30 10 11 14
20 8 20 -24 0 -203 -153 -191 -165 3 -4 18 1 32 10 14 10 26 13 26 7 0 -6 -5
-14 -10 -17 -6 -4 -19 -24 -30 -46 l-20 -39 40 0 c45 0 44 1 28 -35 -9 -21 -9
-28 1 -35 11 -6 11 -15 2 -40 -6 -18 -11 -42 -11 -54 0 -35 -47 -126 -65 -126
-9 0 -14 4 -10 9 3 5 -3 12 -14 16 -11 3 -29 20 -40 38 -11 18 -21 28 -21 24
0 -9 -56 58 -114 136 -21 27 -26 40 -18 50 16 19 -2 44 -20 29 -11 -9 -18 -5
-32 19 -12 20 -14 34 -8 42 5 7 12 22 14 34 5 17 2 20 -11 16 -9 -3 -22 -10
-28 -16 -9 -7 -13 -5 -13 6 0 9 5 19 10 22 6 3 10 11 10 17 0 7 -5 6 -14 -1
-25 -21 -28 5 -5 43 l21 36 -20 0 c-12 0 -24 -5 -28 -12 -12 -19 -25 31 -14
52 16 29 12 42 -12 38 -21 -3 -23 1 -23 52 0 47 -3 55 -17 52 -20 -3 -25 14
-7 20 16 5 1 48 -16 48 -12 0 -25 54 -39 175 -3 22 -9 63 -15 90 -15 73 -25
328 -16 420 l7 80 24 -85 c33 -116 86 -220 133 -263 82 -74 214 -102 481 -101
203 1 300 18 386 69 35 21 104 107 104 131 0 3 13 32 29 64 16 32 39 102 51
155 l23 96 46 25 c66 35 155 30 207 -11z m-1633 -10 c-3 -9 -8 -14 -10 -11 -3
3 -2 9 2 15 9 16 15 13 8 -4z m1827 -136 c0 -20 -15 -26 -25 -9 -9 15 3 43 15
35 5 -3 10 -15 10 -26z m-1783 -26 c-3 -10 -5 -2 -5 17 0 19 2 27 5 18 2 -10
2 -26 0 -35z m-7 -98 c0 -19 -4 -35 -10 -35 -5 0 -9 16 -8 35 1 19 5 35 10 35
4 0 8 -16 8 -35z m-69 -15 c7 11 8 6 7 -17 -2 -18 2 -32 7 -32 6 -1 10 3 10 8
0 5 3 13 8 17 10 11 7 -23 -8 -81 -7 -27 -13 -41 -14 -30 -1 11 -10 45 -21 75
-20 58 -28 118 -9 70 8 -20 12 -22 20 -10z m3080 -156 c-13 -41 -54 -135 -69
-159 l-13 -20 5 20 c2 11 7 39 11 62 4 22 15 49 25 58 10 9 24 30 30 46 16 37
23 33 11 -7z m-3008 -4 c3 -11 1 -23 -4 -26 -5 -3 -9 6 -9 20 0 31 6 34 13 6z
m-46 -22 c-3 -8 -6 -5 -6 6 -1 11 2 17 5 13 3 -3 4 -12 1 -19z m43 -115 c0
-45 -5 -40 -13 10 -3 22 -2 35 4 32 5 -4 9 -22 9 -42z m1146 -254 c19 -22 19
-22 -3 -10 -13 6 -23 16 -23 21 0 15 5 12 26 -11z m117 -35 c-23 -17 -53 -17
-76 1 -17 12 -12 13 37 13 49 -1 54 -2 39 -14z m-73 -68 c0 -2 -8 -10 -17 -17
-16 -13 -17 -12 -4 4 13 16 21 21 21 13z m250 -191 c5 3 37 -22 70 -56 62 -63
85 -73 54 -22 -17 27 -16 26 22 -7 55 -50 104 -76 114 -60 5 8 21 3 56 -19 56
-35 48 -38 -40 -15 -81 21 -178 21 -249 0 -57 -17 -59 -17 -99 4 -42 22 -138
30 -188 16 l-25 -7 23 18 c13 10 44 38 69 63 l46 45 -28 -38 c-29 -40 -28 -59
2 -36 81 63 124 108 140 143 l17 41 4 -38 c2 -20 7 -35 12 -32z m-286 -120
c-9 -14 -12 -25 -8 -26 16 -1 -30 -18 -51 -18 -17 -1 -17 1 5 16 14 9 32 25
40 35 22 27 33 22 14 -7z m721 -83 c-25 -6 -67 7 -60 18 3 6 -1 20 -9 32 -29
41 -16 40 35 -4 38 -32 47 -44 34 -46z m-823 61 c-6 -3 -10 -9 -6 -14 3 -5 -3
-9 -12 -9 -16 0 -16 2 1 20 10 11 21 17 24 14 3 -4 0 -9 -7 -11z m1318 -567
c0 -2 -7 -7 -16 -10 -8 -3 -12 -2 -9 4 6 10 25 14 25 6z m-224 -328 c-10 -6
-22 -6 -26 -2 -5 5 3 10 18 11 22 1 24 0 8 -9z m-1839 -310 c-3 -8 -6 -5 -6 6
-1 11 2 17 5 13 3 -3 4 -12 1 -19z"/>
<path d="M2036 4645 c-9 -26 -7 -32 5 -12 6 10 9 21 6 23 -2 3 -7 -2 -11 -11z"/>
<path d="M2045 4568 c-29 -88 -33 -168 -10 -168 12 0 14 -7 10 -27 -5 -24 -4
-25 5 -10 6 9 8 27 5 38 -4 12 0 30 10 46 12 18 15 38 11 70 -4 36 -3 43 8 34
7 -6 16 -8 19 -4 4 3 -5 12 -19 20 -32 16 -34 16 -39 1z"/>
<path d="M2015 4340 c-8 -13 -1 -24 14 -19 6 3 7 10 2 18 -6 10 -10 10 -16 1z"/>
<path d="M2010 4275 c0 -23 -3 -27 -10 -15 -7 10 -10 -16 -10 -82 0 -54 4 -98
8 -98 7 0 25 -70 35 -140 3 -14 5 -6 6 18 0 23 6 42 11 42 6 0 10 9 10 20 0
25 -17 26 -23 3 -2 -10 -2 -4 0 12 2 17 7 61 10 99 4 55 3 68 -8 64 -8 -3 -19
2 -26 11 -17 22 -16 31 2 31 17 0 20 27 5 50 -7 12 -10 8 -10 -15z"/>
<path d="M2030 3110 c0 -5 5 -10 10 -10 6 0 10 5 10 10 0 6 -4 10 -10 10 -5 0
-10 -4 -10 -10z"/>
<path d="M4175 3295 c39 -32 58 -32 22 0 -15 14 -33 25 -40 25 -7 -1 2 -12 18
-25z"/>
<path d="M2851 2494 c0 -11 3 -14 6 -6 3 7 2 16 -1 19 -3 4 -6 -2 -5 -13z"/>
<path d="M2740 2361 c0 -5 7 -15 17 -22 15 -13 15 -12 4 9 -12 23 -21 28 -21
13z"/>
<path d="M2780 2356 c0 -9 5 -16 10 -16 6 0 10 4 10 9 0 6 -4 13 -10 16 -5 3
-10 -1 -10 -9z"/>
<path d="M3780 1980 c36 -32 62 -41 39 -14 -7 8 -26 22 -43 30 l-31 15 35 -31z"/>
<path d="M2880 1615 c-8 -2 -36 -7 -63 -10 -74 -10 -45 -25 48 -25 l83 0 -8
-35 c-5 -23 -4 -37 3 -42 6 -4 12 -2 14 4 2 6 11 19 19 29 14 18 15 15 11 -28
-2 -25 -2 -50 2 -56 3 -5 24 -12 46 -15 34 -6 43 -3 57 16 l18 22 0 -22 c0
-31 18 -29 25 2 3 14 8 37 12 53 l6 27 7 -30 6 -30 13 24 c7 13 11 34 8 47 -4
24 -3 24 69 24 41 0 74 4 74 8 0 17 -129 34 -280 37 -85 2 -162 2 -170 0z"/>
<path d="M3328 6020 c18 -16 37 -30 43 -30 17 0 1 17 -38 39 l-38 22 33 -31z"/>
<path d="M2818 6013 c12 -2 32 -2 45 0 12 2 2 4 -23 4 -25 0 -35 -2 -22 -4z"/>
<path d="M4401 5373 c-1 -6 -4 -20 -7 -30 -5 -17 -5 -17 6 0 6 10 9 23 6 30
-3 9 -5 9 -5 0z"/>
<path d="M4660 5216 c0 -3 9 -10 20 -16 11 -6 20 -8 20 -6 0 3 -9 10 -20 16
-11 6 -20 8 -20 6z"/>
<path d="M4805 5076 c10 -14 19 -26 22 -26 7 0 -17 39 -28 46 -6 3 -3 -5 6
-20z"/>
</g>
</svg>
